<svg xmlns="http://www.w3.org/2000/svg" width="512" height="512" viewBox="0 0 512 512"><defs><style>.a{fill:#64b3f5;}.b{fill:#fff;}.c{fill:#ff0;}.d{fill:#b1d7b3;}.e{fill:#aed489;}.f{fill:#86b850;}.g{fill:#5e9234;}.h{fill:#dfdfdf;}.i{fill:#bbb;}.j{fill:#7fa071;}.k{fill:#51712d;}.l{fill:#f3501e;}.m{fill:rgba(229,74,24,0.6);}</style></defs><g transform="translate(-1210 -38)"><g transform="translate(1210 38)"><path class="a" d="M256,0C397.386,0,512,114.614,512,256S397.386,512,256,512,0,397.386,0,256,114.614,0,256,0Z"/><path class="b" d="M226.4,14.422a13.136,13.136,0,0,1,5.944,1.409,10.733,10.733,0,0,1,17.941,5.151,8.5,8.5,0,0,1,5.484,5.12,8.1,8.1,0,0,1,.926-.048,8.466,8.466,0,1,1-4.023,15.917,8.469,8.469,0,0,1-14.144,3.58,8.471,8.471,0,0,1-11.8.225,8.461,8.461,0,0,1-12.187.32,10.088,10.088,0,1,1-2.174-19.94c.3,0,.6.016.9.044A13.212,13.212,0,0,1,226.4,14.422Z"/><path class="c" d="M189.116,17.867a19.109,19.109,0,1,1-19.11,19.11A19.109,19.109,0,0,1,189.116,17.867Z"/><path class="b" d="M152.679,41.083a10.348,10.348,0,0,1,4.682,1.109A8.458,8.458,0,0,1,171.5,46.251a6.679,6.679,0,0,1,4.32,4.036,6.234,6.234,0,0,1,.728-.039,6.67,6.67,0,1,1-3.17,12.539,6.673,6.673,0,0,1-11.144,2.82,6.672,6.672,0,0,1-9.3.178,6.674,6.674,0,0,1-9.605.252,7.948,7.948,0,1,1-1.713-15.71c.24,0,.479.014.71.034A10.411,10.411,0,0,1,152.679,41.083Z"/><path class="d" d="M432.948,162.744l34.034.575,12.727-.912,10-5.91,2.854,1.528A256.143,256.143,0,0,0,448.6,87.361l-10.968,2.117L413.453,69.091l-14.259-25.33-.252-.167-3.207,12.834-3.7,36.515-1.631,8.6L374.663,81.268l-3.768,3.411-19.823-14.3-15.155,6.466-6.46-2-28.8,8.038L292.2,75.73l-10.7,4.755-7.052-7L240.437,103.05l-6.462-1.116H211.7l-6.755-8.755-11.512,3.64-47.07-12.628L99.935,87.538l-14.676-10.1-11.208-1.5A255.917,255.917,0,0,0,11,181.6l9.057.532,31.76-16.019,16.584-4.5,8.15,3.653,29-21.96h16.366l15.916-5.454L158.9,152.041l8.435-5.317L181.668,157.4l8.431-9.273L197.306,144,236.2,180.731l22.766,7.309,17.425-14.621,9.838,3.1L316.3,156.279l17.709,7.591,6.748-3.092,32.6,12.641,5.619-5.9,25.579-4.781,12.086,3.655Z"/><path class="e" d="M492.566,158.026a254.191,254.191,0,0,1,16.582,59.686l-1.647.6-6.753,10.979-10.979,2.533-27.863,17.519L437,257.789l-16.886-22.8-19.844-13.721-14.142,3.587-5.7,10.556-13.089,3.8-2.744,12.175-15.407,14.63-7.6-9.918-11.19-6.969-4.432-9.709-43.9-26.814-51.928,25.758-19.844-17.942-14.566,11.849-15.831,27.2-44.539,1.81L109.176,254.2l-14.351-8.443-15.2,4.224-11.4-2.957L53.873,233.942,43.315,232.46,25.162,244.07l-13.086,8.441H1.732l-1.7,1.173A255.847,255.847,0,0,1,10.995,181.6l9.057.534,31.76-16.019,16.584-4.5,8.15,3.653,29-21.96h16.366l15.916-5.454L158.9,152.04l8.435-5.317L181.668,157.4l8.431-9.273L197.306,144,236.2,180.73l22.766,7.309,17.425-14.621,9.838,3.1L316.3,156.278l17.709,7.591,6.748-3.092,32.6,12.641,5.619-5.9,25.579-4.781,12.086,3.655,16.3-3.655,34.034.575,12.727-.912,10-5.91Z"/><path class="f" d="M509.148,217.712a257.719,257.719,0,0,1-6.013,105.248l-11.149,6.6-22.148-16.517-5.9,4.492-26.129-22.194-10.118-1.407-24.1,7.051-10.113-7.6-10.677,9-13.838-5.644-9.27,2.247-14.33,7.025-4.776,8.15-14.328,7.3-10.512,1-33.317,17.549L252,325.6l-12.827,4.018-7.591-12.642-22.757,6.462-17.7-18.261-23.32-9.833-12.789,5.272-8.09-7.275L123.6,310.48l-7.211-4.462L101.494,328.5l-33.71,1.4-26.8-18.373-19.55.971-13.185-7.79-3.232,1.945A257.153,257.153,0,0,1,0,256c0-.774.023-1.541.03-2.315l1.7-1.173H12.076l13.086-8.441,18.153-11.613,10.558,1.482,14.351,13.084,11.4,2.957,15.2-4.224,14.351,8.443,26.177,7.087,44.539-1.81,15.831-27.2,14.566-11.849,19.844,17.942,51.928-25.758,43.9,26.814,4.432,9.709,11.19,6.969,7.6,9.918,15.407-14.63,2.744-12.175,13.089-3.8,5.7-10.556,14.142-3.587,19.844,13.721L437,257.787l24.908-8.443,27.863-17.519,10.979-2.533,6.753-10.979Z"/><path class="g" d="M123.6,310.48l-7.211-4.462-14.892,22.477-33.71,1.4-26.8-18.373-19.55.971-13.185-7.79-3.232,1.945C28.529,423.774,131.956,512,256,512c118.215,0,217.7-80.133,247.136-189.041l-11.149,6.6-22.148-16.517-5.9,4.492-26.129-22.194-10.118-1.407-24.1,7.051-10.113-7.6-10.677,9-13.838-5.644-9.27,2.247-14.33,7.025-4.776,8.15-14.328,7.3-10.512,1-33.317,17.549L252,325.6l-12.827,4.018-7.591-12.642-22.757,6.462-17.7-18.261-23.32-9.833-12.789,5.272-8.09-7.275Z"/></g><g transform="translate(1210 4)"><path class="h" d="M266.153,131.531A144.7,144.7,0,1,1,121.46,276.225,144.7,144.7,0,0,1,266.153,131.531Z" transform="translate(-10 23)"/><path class="i" d="M266.153,155.9A120.325,120.325,0,1,1,145.825,276.225,120.327,120.327,0,0,1,266.153,155.9Z" transform="translate(-10 23)"/><path class="j" d="M266.153,164.725a111.5,111.5,0,1,1-111.506,111.5A111.5,111.5,0,0,1,266.153,164.725Z" transform="translate(-10 24)"/><g transform="translate(-10 23)"><path class="b" d="M244.656,112.315h42.995a12.5,12.5,0,0,1,12.47,12.47h0a12.45,12.45,0,0,1-4.669,9.714,146.083,146.083,0,0,0-18.406-2.563h10.605a7.17,7.17,0,0,0,7.15-7.15h0a7.174,7.174,0,0,0-7.15-7.15H244.656a7.174,7.174,0,0,0-7.15,7.15h0a7.17,7.17,0,0,0,7.15,7.15h10.6a145.9,145.9,0,0,0-18.406,2.563,12.449,12.449,0,0,1-4.669-9.714h0A12.5,12.5,0,0,1,244.656,112.315Z"/></g><rect class="k" width="107" height="39" rx="8" transform="translate(203 323)"/><rect class="b" width="58" height="5" transform="translate(228 340)"/></g><rect class="b" width="135" height="12" transform="translate(1399 288)"/><g transform="translate(-19 44)"><path class="l" d="M275.381,65.267A46.18,46.18,0,0,0,229.2,111.446c0,36.89,46.179,100.785,46.179,100.785s46.184-61.574,46.184-100.785A46.183,46.183,0,0,0,275.381,65.267Zm0,81.534h0a35.354,35.354,0,1,1,35.351-35.356A35.353,35.353,0,0,1,275.381,146.8Z" transform="translate(1210 38)"/><path class="b" d="M275.383,76.1a35.352,35.352,0,1,0,0,70.7h.22a35.353,35.353,0,0,0-.043-70.7Z" transform="translate(1210 38)"/><path class="m" d="M275.557,65.267a.921.921,0,0,0-.174.009V76.1a1.253,1.253,0,0,1,.174-.009A35.354,35.354,0,0,1,275.6,146.8c-.119,0-.22-.009-.22-.009v64.946a.714.714,0,0,0,.174.492s46.184-61.574,46.184-100.785A46.185,46.185,0,0,0,275.557,65.267Z" transform="translate(1210 38)"/></g></g></svg>