<svg xmlns="http://www.w3.org/2000/svg" width="603" height="316" viewBox="0 0 603 316"><defs><style>.a,.c,.d{fill:#fff;}.b{fill:#599e30;}.c{stroke:#fff;}.d{stroke:#f5f5f5;}.aa,.d,.v,.w,.x,.y,.z{stroke-width:3px;}.e{fill:#34a853;}.f{fill:#4285f4;}.g{fill:#fbbc05;}.h{fill:#ea4335;}.i,.j,.l,.m,.o,.r,.t{fill:none;}.j,.m,.t{stroke:#eee;}.j{stroke-width:6px;}.k{fill:#cbecb7;}.l{stroke:#599e30;}.l,.o,.r,.t{stroke-width:7px;}.m{stroke-width:2px;}.n{fill:#ffd8a8;}.o{stroke:#ffad46;}.p{fill:#ffad46;}.q{fill:#f2bdab;}.r{stroke:#ac725e;}.s{fill:#ac725e;}.u{fill:#eee;}.v{fill:#e3b73a;stroke:#e3b73a;}.w{fill:#296ad9;stroke:#296ad9;}.x{fill:#089156;stroke:#089156;}.y{fill:#2a71e9;stroke:#2a71e9;}.z{fill:#0ba25e;stroke:#0ba25e;}.aa{fill:#fccd48;stroke:#fccd48;}.ab{stroke:none;}</style></defs><g transform="translate(-78 -77)"><rect class="a" width="603" height="316" transform="translate(78 77)"/><g transform="translate(-882 38.894)"><path class="b" d="M24.2,0A24.2,24.2,0,1,1,0,24.2,24.2,24.2,0,0,1,24.2,0Z" transform="translate(1435 72)"/><g transform="translate(1444.172 78.677)"><path class="c" d="M58.167,7.992a9.341,9.341,0,0,0-18.486,0A9.34,9.34,0,1,0,47.92,24.736v9.517h2.007V24.736a9.34,9.34,0,1,0,8.24-16.744ZM54.431,23.887a7.324,7.324,0,0,1-4.5-1.547V16.2l4.5-2.367-.934-1.776-3.567,1.875V9.984H47.92v8.4l-3.567-1.875-.934,1.776,4.5,2.367v1.69A7.333,7.333,0,1,1,40.95,9.647l.614-.219.049-.65a7.333,7.333,0,0,1,14.623,0l.049.65.614.219a7.334,7.334,0,0,1-2.467,14.24Z" transform="translate(-34.077)"/></g></g><g transform="translate(8 82)"><g class="d" transform="translate(78 62)"><rect class="ab" width="108" height="42" rx="21"/><rect class="i" x="1.5" y="1.5" width="105" height="39" rx="19.5"/></g><g transform="translate(90 66.432)"><path class="e" d="M16,16V28.665h3.619V19.619Z" transform="translate(-1.526 -1.526)"/><path class="f" d="M28.665,16H19.619L16,19.619H28.665Z" transform="translate(-1.526 -1.526)"/><path class="g" d="M6,16v3.619h9.047L18.665,16Z" transform="translate(-0.572 -1.526)"/><path class="h" d="M19.619,15.047V6H16V18.665Z" transform="translate(-1.526 -0.572)"/><path class="i" d="M0,0H32.568V32.568H0Z"/></g><line class="j" x2="33" transform="translate(131.5 82.5)"/></g><line class="j" x2="47" transform="translate(105.5 208.5)"/><line class="j" x2="47" transform="translate(105.5 230.5)"/><line class="j" x2="47" transform="translate(105.5 252.5)"/><line class="j" x2="47" transform="translate(105.5 274.5)"/><g transform="translate(221 171.5)"><rect class="k" width="454" height="48.5" rx="3" transform="translate(1 2.5)"/><path class="l" d="M0,0H240" transform="translate(84.5 26.75)"/><rect class="b" width="25" height="25" rx="4" transform="translate(31 15.01)"/><line class="m" x2="454" transform="translate(0.5)"/></g><g transform="translate(221 224.229)"><rect class="n" width="454" height="50" rx="3" transform="translate(0 2.5)"/><path class="o" d="M0,0H240" transform="translate(84.5 30)"/><rect class="p" width="25" height="25" rx="4" transform="translate(31 17.5)"/><line class="m" x2="454" transform="translate(0.5)"/></g><g transform="translate(221 280.701)"><rect class="q" width="454" height="50" rx="3" transform="translate(0 1.5)"/><path class="r" d="M0,0H240" transform="translate(86.5 27)"/><rect class="s" width="25" height="25" rx="4" transform="translate(31 14.5)"/><line class="m" x2="454" transform="translate(0.5)"/></g><g transform="translate(221 334.43)"><rect class="a" width="454" height="54" transform="translate(0 1.5)"/><line class="t" x2="240" transform="translate(84.5 29)"/><rect class="u" width="25" height="25" rx="4" transform="translate(31 17.5)"/><line class="m" x2="454" transform="translate(0.5)"/></g><line class="t" y1="1" x2="49" transform="translate(221.5 139.5)"/><g transform="translate(277 71.5)"><path class="u" d="M12.22,64.184a.747.747,0,0,0-.547-.231H.778a.748.748,0,0,0-.547.231.764.764,0,0,0,0,1.094l5.447,5.447a.763.763,0,0,0,1.094,0l5.447-5.447a.763.763,0,0,0,0-1.094Z" transform="translate(0 0)"/></g><g transform="translate(108 84.545)"><path class="v" d="M183.27,240.544H172.246l-.04,7.811h9.28a3.127,3.127,0,0,0,2.712-1.571l1.353-2.358-.073-.042Z" transform="translate(-155.425 -210.188)"/><path class="w" d="M11.8,106.1l-6.752-3.927L.416,110.221a3.127,3.127,0,0,0,0,3.124l1.336,2.309H6.3Z" transform="translate(0 -85.297)"/><path class="x" d="M175.206,11.619s5.471,9.518,5.471,9.518l6.793-3.858-4.626-8.047a3.126,3.126,0,0,0-2.711-1.568h-2.7v.075Z" transform="translate(-158.133 0)"/><path class="y" d="M30.61,218.737h-.04a.859.859,0,0,0-.859.859v1.266H18.027l3.865,6.68a2.266,2.266,0,0,0,1.961,1.131h5.858v1.265a.859.859,0,0,0,.859.859h0a.859.859,0,0,0,.607-.252l5.191-5.191a.859.859,0,0,0,0-1.215l-3.279-3.278-1.872-1.873A.859.859,0,0,0,30.61,218.737Z" transform="translate(-16.271 -190.506)"/><path class="z" d="M54.925,19.707l.02-.034a.859.859,0,0,0-.317-1.173l-1.1-.631,3.592-6.25,2.231-3.881V7.663h-7.2A3.126,3.126,0,0,0,49.432,9.25l-2.673,4.725-1.1-.63a.859.859,0,0,0-1.173.317h0a.859.859,0,0,0-.085.652l.691,2.557L46.317,21.4a.859.859,0,0,0,1.053.606l7.034-1.9A.859.859,0,0,0,54.925,19.707Z" transform="translate(-40.05 0)"/><path class="aa" d="M233.145,97.625l1.1-.631a.859.859,0,0,0,.317-1.173h0a.859.859,0,0,0-.521-.4l-7.088-1.914a.859.859,0,0,0-1.053.606l-1.9,7.033a.86.86,0,0,0,.085.652l.02.035a.859.859,0,0,0,1.173.317l1.1-.63,3.615,6.29,2.208,3.84.073.042,3.582-6.244a3.126,3.126,0,0,0,0-3.114Z" transform="translate(-202.145 -77.451)"/></g></g></svg>