<svg xmlns="http://www.w3.org/2000/svg" width="512" height="512" viewBox="0 0 512 512"><defs><style>.a{fill:#5da6dd;}.b{fill:#807d7d;}.c{fill:#666;}.d{fill:#cbecb7;}.e{fill:#84c05f;}.f,.g{fill:#599e30;}.g{stroke:#599e30;}</style></defs><path class="a" d="M256,0C397.385,0,512,114.615,512,256S397.385,512,256,512,0,397.385,0,256,114.615,0,256,0Z"/><path class="b" d="M14.087,370.541H497.913v16.577a16.623,16.623,0,0,1-16.577,16.577H30.659a16.626,16.626,0,0,1-16.577-16.577V370.541Z"/><path class="c" d="M189.711,370.541H322.284v4.873a4.886,4.886,0,0,1-4.873,4.873H194.58a4.889,4.889,0,0,1-4.873-4.873v-4.873Z"/><path class="b" d="M60.751,108.306H451.245a8.7,8.7,0,0,1,8.669,8.669V356.232a8.693,8.693,0,0,1-8.669,8.669H60.751a8.7,8.7,0,0,1-8.669-8.669V116.975A8.692,8.692,0,0,1,60.751,108.306Z"/><path class="d" d="M70.307,125.714H441.781V352.1H70.307Z"/><g transform="translate(157 145.505)"><path class="e" d="M191.589,136.861H6.91A6.91,6.91,0,0,1,0,129.952V20.5H198.5V129.952A6.91,6.91,0,0,1,191.589,136.861Z" transform="translate(0 41.181)"/><path class="f" d="M89.047,30.879V10.41a6.91,6.91,0,0,0-6.91-6.91H6.91A6.91,6.91,0,0,0,0,10.41V61.681H198.5V37.789a6.91,6.91,0,0,0-6.91-6.91Z" transform="translate(0 0)"/><g transform="translate(59.472 81.952)"><path class="g" d="M82.878,8.873c0,.008-.008.012-.009.019l-.426.736a.3.3,0,0,0-.023.047L75.1,22.342l15.489,8.942L97.7,18.972l.89-1.541,2.143-3.709,5.16-8.943H90.405A8.95,8.95,0,0,0,82.878,8.873Z" transform="translate(-61.177 -4.777)"/><path class="g" d="M186.04,9.241a8.943,8.943,0,0,0-7.745-4.471H157.645a8.959,8.959,0,0,1,7.517,4.074l.483.843,12.469,21.588L193.6,22.333Z" transform="translate(-128.416 -4.77)"/><path class="g" d="M227.925,80.157h17.762l8.881-15.38Z" transform="translate(-185.666 -53.651)"/><path class="g" d="M319.133,161.205a.047.047,0,0,0-.013-.017l-.425-.738a.416.416,0,0,0-.026-.044l-7.313-12.669-15.489,8.942,7.11,12.312.89,1.543,2.138,3.71,5.165,8.941,7.745-13.413A8.954,8.954,0,0,0,319.133,161.205Z" transform="translate(-241.012 -121.23)"/><path class="g" d="M256.3,288.939a8.949,8.949,0,0,0,7.744-4.471l7.744-13.414,2.584-4.473a8.953,8.953,0,0,1-7.285,4.47h-.976l-24.928,0v17.884H256.3Z" transform="translate(-196.462 -218.039)"/><path class="g" d="M222.219,255.983l-8.877,15.38,8.877,15.382Z" transform="translate(-173.787 -209.406)"/><path class="g" d="M51.006,290.694H20.4l7.742,13.414a8.955,8.955,0,0,0,7.31,4.47h.873a.2.2,0,0,0,.054,0l14.627,0V290.694Z" transform="translate(-16.617 -237.681)"/><path class="g" d="M1.2,160.815a8.954,8.954,0,0,0,0,8.941l7.745,13.412,2.584,4.474a8.962,8.962,0,0,1-.23-8.546l.487-.843,12.464-21.589L8.756,147.72Z" transform="translate(0 -121.216)"/><path class="g" d="M33.773,163.1l-8.878-15.38-17.76,0Z" transform="translate(-5.811 -121.213)"/></g></g></svg>