<?xml version="1.0" encoding="UTF-8"?>
<svg xmlns="http://www.w3.org/2000/svg" xmlns:xlink="http://www.w3.org/1999/xlink" width="50px" height="50px" viewBox="0 0 40 40" version="1.1">
<g id="surface1">
<path style=" stroke:none;fill-rule:nonzero;fill:#DCD5F2;fill-opacity:1;" d="M 20 30.5 C 9.246094 30.5 0.5 25.789063 0.5 20 C 0.5 14.210938 9.246094 9.5 20 9.5 C 30.753906 9.5 39.5 14.210938 39.5 20 C 39.5 25.789063 30.753906 30.5 20 30.5 Z M 20 30.5 "/>
<path style=" stroke:none;fill-rule:nonzero;fill:#8B75A1;fill-opacity:1;" d="M 20 10 C 30.300781 10 39 14.578125 39 20 C 39 25.421875 30.300781 30 20 30 C 9.699219 30 1 25.421875 1 20 C 1 14.578125 9.699219 10 20 10 M 20 9 C 8.953125 9 0 13.925781 0 20 C 0 26.074219 8.953125 31 20 31 C 31.046875 31 40 26.074219 40 20 C 40 13.925781 31.046875 9 20 9 Z M 20 9 "/>
<path style=" stroke:none;fill-rule:nonzero;fill:#36404D;fill-opacity:1;" d="M 12.554688 17 C 13.417969 17 14.164063 17.3125 14.597656 17.851563 C 14.972656 18.320313 15.089844 18.9375 14.933594 19.640625 C 14.511719 21.535156 13.699219 22 10.785156 22 L 8.714844 22 L 9.589844 17 L 12.554688 17 M 12.554688 16 L 8.75 16 L 7 26 L 8 26 L 8.527344 23 L 10.785156 23 C 13.714844 23 15.3125 22.546875 15.90625 19.859375 C 16.421875 17.546875 14.71875 16 12.554688 16 Z M 12.554688 16 "/>
<path style=" stroke:none;fill-rule:nonzero;fill:#36404D;fill-opacity:1;" d="M 30.554688 17 C 31.417969 17 32.164063 17.3125 32.597656 17.851563 C 32.972656 18.320313 33.089844 18.9375 32.933594 19.640625 C 32.511719 21.535156 31.699219 22 28.785156 22 L 26.714844 22 L 27.589844 17 L 30.554688 17 M 30.554688 16 L 26.75 16 L 25 26 L 26 26 L 26.527344 23 L 28.785156 23 C 31.714844 23 33.3125 22.546875 33.90625 19.859375 C 34.421875 17.546875 32.71875 16 30.554688 16 Z M 30.554688 16 "/>
<path style=" stroke:none;fill-rule:nonzero;fill:#36404D;fill-opacity:1;" d="M 24.535156 16.605469 C 24.097656 16.175781 23.320313 16 22.167969 16 L 19.398438 16 L 20 13 L 18.949219 13 L 17 23 L 17.996094 23 L 19.1875 17 L 22.167969 17 C 23.335938 17 23.714844 17.199219 23.835938 17.316406 C 24.007813 17.488281 24.046875 17.929688 23.945313 18.5 L 23.058594 23 L 24.113281 23 L 24.925781 18.683594 C 25.097656 17.730469 24.96875 17.03125 24.535156 16.605469 Z M 24.535156 16.605469 "/>
</g>
</svg>

