<svg xmlns="http://www.w3.org/2000/svg" width="603" height="316" viewBox="0 0 603 316"><defs><style>.a,.b{fill:#fff;}.b{stroke:#f5f5f5;}.b,.k{stroke-width:3px;}.c{fill:#34a853;}.d{fill:#4285f4;}.e{fill:#fbbc05;}.f{fill:#ea4335;}.g,.h,.i,.k{fill:none;}.h,.i,.k{stroke:#eee;}.h{stroke-width:6px;}.i{stroke-width:7px;}.j{fill:#eee;}.l{stroke:none;}</style></defs><g transform="translate(-78 -77)"><rect class="a" width="603" height="316" transform="translate(78 77)"/><g transform="translate(8 82)"><g class="b" transform="translate(78 62)"><rect class="l" width="108" height="42" rx="21"/><rect class="g" x="1.5" y="1.5" width="105" height="39" rx="19.5"/></g><g transform="translate(90 66.432)"><path class="c" d="M16,16V28.665h3.619V19.619Z" transform="translate(-1.526 -1.526)"/><path class="d" d="M28.665,16H19.619L16,19.619H28.665Z" transform="translate(-1.526 -1.526)"/><path class="e" d="M6,16v3.619h9.047L18.665,16Z" transform="translate(-0.572 -1.526)"/><path class="f" d="M19.619,15.047V6H16V18.665Z" transform="translate(-1.526 -0.572)"/><path class="g" d="M0,0H32.568V32.568H0Z"/></g><line class="h" x2="33" transform="translate(131.5 82.5)"/></g><line class="h" x2="47" transform="translate(105.5 208.5)"/><line class="h" x2="47" transform="translate(105.5 230.5)"/><line class="h" x2="47" transform="translate(105.5 252.5)"/><line class="h" x2="47" transform="translate(105.5 274.5)"/><line class="i" y1="1" x2="49" transform="translate(221.5 139.5)"/><g transform="translate(277 71.5)"><path class="j" d="M12.22,64.184a.747.747,0,0,0-.547-.231H.778a.748.748,0,0,0-.547.231.764.764,0,0,0,0,1.094l5.447,5.447a.763.763,0,0,0,1.094,0l5.447-5.447a.763.763,0,0,0,0-1.094Z" transform="translate(0 0)"/></g><g transform="translate(221 170.43)"><rect class="a" width="454" height="50" transform="translate(0 1.5)"/><line class="i" x2="240" transform="translate(84.5 26.903)"/><rect class="j" width="25" height="25" rx="4" transform="translate(31 15.192)"/></g><g transform="translate(221 225.43)"><rect class="a" width="454" height="50" transform="translate(0 1.5)"/><line class="i" x2="240" transform="translate(84.5 26.903)"/><rect class="j" width="25" height="25" rx="4" transform="translate(31 15.192)"/></g><g transform="translate(221 280.43)"><rect class="a" width="454" height="50" transform="translate(0 1.5)"/><line class="i" x2="240" transform="translate(84.5 26.903)"/><rect class="j" width="25" height="25" rx="4" transform="translate(31 15.192)"/></g><g transform="translate(221 335.43)"><rect class="a" width="454" height="50" transform="translate(0 1.5)"/><line class="i" x2="240" transform="translate(84.5 26.903)"/><rect class="j" width="25" height="25" rx="4" transform="translate(31 15.192)"/></g><line class="k" x2="454" transform="translate(220.5 166.5)"/><line class="k" x2="454" transform="translate(220.5 223.5)"/><line class="k" x2="454" transform="translate(220.5 280.5)"/><line class="k" x2="454" transform="translate(220.5 337.5)"/></g></svg>