<svg xmlns="http://www.w3.org/2000/svg" width="37.217" height="35.629" viewBox="0 0 37.217 35.629"><defs><style>.a{fill:#e3b73a;stroke:#e3b73a;}.a,.b,.c,.d,.e,.f{stroke-width:3px;}.b{fill:#296ad9;stroke:#296ad9;}.c{fill:#089156;stroke:#089156;}.d{fill:#2a71e9;stroke:#2a71e9;}.e{fill:#0ba25e;stroke:#0ba25e;}.f{fill:#fccd48;stroke:#fccd48;}</style></defs><g transform="translate(1.548 -6.163)"><path class="a" d="M183.27,240.544H172.246l-.04,7.811h9.28a3.127,3.127,0,0,0,2.712-1.571l1.353-2.358-.073-.042Z" transform="translate(-155.425 -210.188)"/><path class="b" d="M11.8,106.1l-6.752-3.927L.416,110.221a3.127,3.127,0,0,0,0,3.124l1.336,2.309H6.3Z" transform="translate(0 -85.297)"/><path class="c" d="M175.206,11.619s5.471,9.518,5.471,9.518l6.793-3.858-4.626-8.047a3.126,3.126,0,0,0-2.711-1.568h-2.7v.075Z" transform="translate(-158.133 0)"/><path class="d" d="M30.61,218.737h-.04a.859.859,0,0,0-.859.859v1.266H18.027l3.865,6.68a2.266,2.266,0,0,0,1.961,1.131h5.858v1.265a.859.859,0,0,0,.859.859h0a.859.859,0,0,0,.607-.252l5.191-5.191a.859.859,0,0,0,0-1.215l-3.279-3.278-1.872-1.873A.859.859,0,0,0,30.61,218.737Z" transform="translate(-16.271 -190.506)"/><path class="e" d="M54.925,19.707l.02-.034a.859.859,0,0,0-.317-1.173l-1.1-.631,3.592-6.25,2.231-3.881V7.663h-7.2A3.126,3.126,0,0,0,49.432,9.25l-2.673,4.725-1.1-.63a.859.859,0,0,0-1.173.317h0a.859.859,0,0,0-.085.652l.691,2.557L46.317,21.4a.859.859,0,0,0,1.053.606l7.034-1.9A.859.859,0,0,0,54.925,19.707Z" transform="translate(-40.05 0)"/><path class="f" d="M233.145,97.625l1.1-.631a.859.859,0,0,0,.317-1.173h0a.859.859,0,0,0-.521-.4l-7.088-1.914a.859.859,0,0,0-1.053.606l-1.9,7.033a.86.86,0,0,0,.085.652l.02.035a.859.859,0,0,0,1.173.317l1.1-.63,3.615,6.29,2.208,3.84.073.042,3.582-6.244a3.126,3.126,0,0,0,0-3.114Z" transform="translate(-202.145 -77.451)"/></g></svg>