<svg xmlns="http://www.w3.org/2000/svg" width="48.394" height="48.395" viewBox="0 0 48.394 48.395"><defs><style>.a{fill:#599e30;}.b{fill:#fff;stroke:#fff;}</style></defs><g transform="translate(-1435 -72)"><path class="a" d="M24.2,0A24.2,24.2,0,1,1,0,24.2,24.2,24.2,0,0,1,24.2,0Z" transform="translate(1435 72)"/><g transform="translate(1444.172 78.677)"><path class="b" d="M58.167,7.992a9.341,9.341,0,0,0-18.486,0A9.34,9.34,0,1,0,47.92,24.736v9.517h2.007V24.736a9.34,9.34,0,1,0,8.24-16.744ZM54.431,23.887a7.324,7.324,0,0,1-4.5-1.547V16.2l4.5-2.367-.934-1.776-3.567,1.875V9.984H47.92v8.4l-3.567-1.875-.934,1.776,4.5,2.367v1.69A7.333,7.333,0,1,1,40.95,9.647l.614-.219.049-.65a7.333,7.333,0,0,1,14.623,0l.049.65.614.219a7.334,7.334,0,0,1-2.467,14.24Z" transform="translate(-34.077)"/></g></g></svg>